<svg width="27" height="18" viewBox="0 0 27 18" fill="none" xmlns="http://www.w3.org/2000/svg">
<path d="M9 0C10.6397 0 12.176 0.439977 13.5 1.20605C10.8104 2.76232 9 5.66909 9 9C9 12.3307 10.8106 15.2366 13.5 16.793C12.1759 17.5592 10.6398 18 9 18C4.02944 18 0 13.9706 0 9C0 4.02944 4.02944 0 9 0ZM18 0C22.9706 0 27 4.02944 27 9C27 13.9706 22.9706 18 18 18C16.3602 18 14.8241 17.5592 13.5 16.793C16.1894 15.2366 18 12.3307 18 9C18 5.66909 16.1896 2.76232 13.5 1.20605C14.824 0.439977 16.3603 0 18 0Z" fill="#595959"/>
</svg>
